<mxfile host="app.diagrams.net" modified="2023-06-30T06:06:47.115Z" agent="Mozilla/5.0 (Windows NT 10.0; Win64; x64) AppleWebKit/537.36 (KHTML, like Gecko) Chrome/114.0.0.0 Safari/537.36" version="21.5.2" etag="JxXx0_WFctxFMDN23PTR" type="github">
  <diagram name="第 1 页" id="OyRYPD43hDr3nMTAe6Ek">
    <mxGraphModel>
      <root>
        <mxCell id="0" />
        <mxCell id="1" parent="0" />
      </root>
    </mxGraphModel>
  </diagram>
</mxfile>
